<svg xmlns="http://www.w3.org/2000/svg" xmlns:xlink="http://www.w3.org/1999/xlink" width="375.787" height="218.35" viewBox="0 0 375.787 218.35">
  <defs>
    <linearGradient id="linear-gradient" x1="0.149" y1="0.856" x2="0.851" y2="0.144" gradientUnits="objectBoundingBox">
      <stop offset="0.15" stop-color="#ff468f"/>
      <stop offset="0.85" stop-color="#ff8b67"/>
    </linearGradient>
    <linearGradient id="linear-gradient-2" x1="-0.061" y1="0.891" x2="0.796" y2="0.109" xlink:href="#linear-gradient"/>
    <linearGradient id="linear-gradient-3" x1="-1.02" y1="0.721" x2="-0.082" y2="0.437" xlink:href="#linear-gradient"/>
  </defs>
  <g id="Group_3" data-name="Group 3" transform="translate(-0.013)">
    <path id="Path_1" data-name="Path 1" d="M157.1,165.9c0-29,23.8-52.4,53.2-52.4s53.2,23.5,53.2,52.4-23.8,52.4-53.2,52.4S157.1,194.8,157.1,165.9Zm88.1,0a34.9,34.9,0,1,0-34.9,34.9A34.868,34.868,0,0,0,245.2,165.9Z" fill="url(#linear-gradient)"/>
    <path id="Path_2" data-name="Path 2" d="M375.8,165.9c0,28.1-23.1,50.9-51.7,50.9H292a9.133,9.133,0,0,1-9.1-9.1V124.1A9.133,9.133,0,0,1,292,115h32.1C352.7,115,375.8,137.8,375.8,165.9Zm-18.2,0a33.459,33.459,0,0,0-33.4-33.4H301.3v66.8h22.9A33.459,33.459,0,0,0,357.6,165.9Z" fill="url(#linear-gradient-2)"/>
    <g id="Group_1" data-name="Group 1">
      <path id="Path_3" data-name="Path 3" d="M11.7,59.2H168.4a11.727,11.727,0,0,1,10.1,17.6L100.1,212.5a11.73,11.73,0,0,1-20.3,0L1.6,76.7A11.652,11.652,0,0,1,11.7,59.2Z" fill="url(#linear-gradient-3)"/>
      <path id="Path_4" data-name="Path 4" d="M168.5,59.2H120.4L73.3,200.9S111.8,131.2,175,61.2A11.354,11.354,0,0,0,168.5,59.2Z" fill="#020000" opacity="0.2"/>
      <path id="Path_5" data-name="Path 5" d="M148.1,32.2l-5.7,9.9a5.35,5.35,0,0,1-7.3,1.9L105.5,26.9a5.35,5.35,0,0,1-1.9-7.3l5.7-9.9L92.3,0,24.8,117l48.5,83.9L165,42Z" fill="#414042"/>
      <path id="Path_6" data-name="Path 6" d="M132.4,59.2l-20.2,35a5.35,5.35,0,0,1-7.3,1.9l-29.5-17a5.35,5.35,0,0,1-1.9-7.3l20.2-35a5.35,5.35,0,0,1,7.3-1.9L130.5,52A5.233,5.233,0,0,1,132.4,59.2Z" fill="#fff"/>
      <path id="Path_7" data-name="Path 7" d="M102.3,111.4l-20.2,35a5.35,5.35,0,0,1-7.3,1.9L45.2,131.2a5.35,5.35,0,0,1-1.9-7.3l20.2-35A5.35,5.35,0,0,1,70.8,87l29.6,17.1A5.373,5.373,0,0,1,102.3,111.4Z" fill="#fff"/>
      <path id="Path_8" data-name="Path 8" d="M36.9,120.8l-2.9,5-5-2.9,2.9-5Zm2.6-16.2-2.9,5,5,2.9,2.9-5Zm7.7-13.3-2.9,5,5,2.9,2.9-5ZM54.9,78,52,83l5,2.9,2.9-5Zm7.7-13.3-2.9,5,5,2.9,2.9-5Zm7.6-13.3-2.9,5,5,2.9,2.9-5Zm7.7-13.3-2.9,5L80,46l2.9-5ZM93.3,11.6l-2.9,5,5,2.9,2.9-5ZM85.6,24.9l-2.9,5,5,2.9,2.9-5Z" fill="#fff"/>
      <path id="Path_9" data-name="Path 9" d="M85,166.3l-2.9,5-5-2.9,2.9-5Zm2.6-16.2-2.9,5,5,2.9,2.9-5Zm7.7-13.3-2.9,5,5,2.9,2.9-5Zm7.7-13.3-2.9,5,5,2.9,2.9-5Zm7.7-13.3-2.9,5,5,2.9,2.9-5Zm7.6-13.3-2.9,5,5,2.9,2.9-5ZM126,83.7l-2.9,5,5,2.9,2.9-5Zm7.7-13.3-2.9,5,5,2.9,2.9-5ZM149,43.8l-2.9,5,5,2.9,2.9-5Zm-7.6,13.3-2.9,5,5,2.9,2.9-5ZM72.3,176.7l-2.9,5,5,2.9,2.9-5Z" fill="#fff"/>
      <path id="Path_10" data-name="Path 10" d="M70.3,156.3,40.7,139.2a5.085,5.085,0,0,0-3.4-.6L62,181.3l10.2-17.7A5.35,5.35,0,0,0,70.3,156.3Z" fill="#fff"/>
    </g>
    <g id="Group_2" data-name="Group 2">
      <path id="Path_11" data-name="Path 11" d="M253.6,102l8-34.6h7L262,95.9h11l-1.4,6.1Z" fill="#fff"/>
      <path id="Path_12" data-name="Path 12" d="M293.3,67.3h7l-8,34.6h-7Z" fill="#fff"/>
      <path id="Path_13" data-name="Path 13" d="M317.2,67.3h20l-1.4,6.1H322.9l-2.4,10.4h10.7l-1.5,6.1H319.1l-2.8,12h-7Z" fill="#fff"/>
      <path id="Path_14" data-name="Path 14" d="M351.6,67.3h20.3l-1.4,6.1H357.3l-1.9,8.2h10.5l-1.4,6.1H354l-1.9,8.1h13.3L364,102H343.6Z" fill="#fff"/>
    </g>
  </g>
</svg>
