<svg height="448pt" viewBox="0 0 448 448" width="448pt" xmlns="http://www.w3.org/2000/svg"><path d="m128 312h192v-176h-192zm152-160c13.253906 0 24 10.746094 24 24s-10.746094 24-24 24-24-10.746094-24-24 10.746094-24 24-24zm-135.433594 133.023438 32-80c1.046875-2.625 3.398438-4.507813 6.191406-4.949219 2.792969-.4375 5.609376.628906 7.410157 2.804687l35.9375 43.128906 26.320312-13.207031c3.320313-1.660156 7.351563-.816406 9.726563 2.039063l40 48c2.011718 2.382812 2.453125 5.722656 1.132812 8.546875-1.320312 2.828125-4.164062 4.628906-7.285156 4.613281h-144c-2.65625.003906-5.140625-1.316406-6.628906-3.515625-1.492188-2.199219-1.792969-4.996094-.804688-7.460937zm0 0"/><path d="m224 0c-123.710938 0-224 100.289062-224 224s100.289062 224 224 224 224-100.289062 224-224c-.140625-123.652344-100.347656-223.859375-224-224zm112 320c0 4.417969-3.582031 8-8 8h-208c-4.417969 0-8-3.582031-8-8v-192c0-4.417969 3.582031-8 8-8h208c4.417969 0 8 3.582031 8 8zm0 0"/><path d="m253.910156 249.992188-26.335937 13.207031c-3.320313 1.660156-7.351563.816406-9.726563-2.039063l-31.398437-37.6875-22.632813 56.527344h115.105469zm0 0"/><path d="m288 176c0 4.417969-3.582031 8-8 8s-8-3.582031-8-8 3.582031-8 8-8 8 3.582031 8 8zm0 0"/></svg>